# xmcd
#
# Track frame offsets: 
#        150
#        15050
#        30567
#        44980
#        57840
#        72307
#        86852
#        101345
#        112820
#        127505
#        142212
#        156457
#        169165
#        182987
#        198435
#        209062
#        225105
#        239797
#        254055
#        267235
#        281115
#        297317
#
# Disc length: 4164 seconds
#
# Revision: 2
# Processed by: cddbd v1.4PL0 Copyright (c) Steve Scherf et al.
# Submitted via: ExactAudioCopy v0.90b3
#
DISCID=4f104216
DTITLE=Various Artist - The Music of Prohibition
DYEAR=1997
DGENRE=Swing
TTITLE0=Cab Calloway - Minnie the Moocher
TTITLE1=Louis Armstrong - Chicago Breakdown
TTITLE2=Duke Ellington - It Don't Mean a Thing (If It Ain't Got That S
TTITLE2=wing)
TTITLE3=Fletcher Henerson - Sugar Foot Stomp
TTITLE4=Don Redman - I Go Rhythm
TTITLE5=Dorsey Brothers - Shim Sham Shimmy
TTITLE6=Chick Webb and His Orchestra - Stompin' At the Savoy
TTITLE7=Bennie Moten's Kansas City Orchestra - Kater Street Rag
TTITLE8=Duke Ellington - The Mooche
TTITLE9=State Street Swingers - You Drink Too Much
TTITLE10=Duke Ellington - Mood Indigo
TTITLE11=Duke Ellington - Chicago Stomp Down
TTITLE12=Cab Calloway - Take the A Train
TTITLE13=Duke Ellington - Black And Tan Fantasy
TTITLE14=The Mills Brothers - St. Louis Blues
TTITLE15=Mississippi Sheiks - Bootlegger Blues
TTITLE16=Duke Ellington - Rockin' In Rhythm
TTITLE17=The Mills Brothers - Diga Diga Do
TTITLE18=California Ramblers - Sweet Georgia Brown
TTITLE19=Bert Williams - The Moon Shines on Moonshine
TTITLE20=California Ramblers - Charleston
TTITLE21=Casa Loma Orchestra - Happy Days are Here Again
EXTD=
EXTT0=Cab Calloway\n
EXTT1=Louis Armstrong\n
EXTT2=Duke Ellington\n
EXTT3=Fletcher Henderson\n
EXTT4=Dan Redman\n
EXTT5=Dorsey Brothers\n
EXTT6=Chick Webb and His Orchestra\n
EXTT7=Bennie Moten's Kansas City Orchestra\n
EXTT8=Duke Ellington\n
EXTT9=State Street Swingers\n
EXTT10=Duke Ellington\n
EXTT11=Duke Ellington\n
EXTT12=Cab Calloway\n
EXTT13=Duke Ellington\n
EXTT14=The Mills Brothers\n
EXTT15=Mississippi Sheiks\n
EXTT16=Duke Ellington\n
EXTT17=The Mills Brothers\n
EXTT18=California Ramblers\n
EXTT19=Bert Williams\n
EXTT20=California Ramblers\n
EXTT21=Casa Loma Orchestra\nConducted by Glen Gray\n
PLAYORDER=
